<?xml version="1.0" standalone="no"?>
<!DOCTYPE svg PUBLIC "-//W3C//DTD SVG 20010904//EN"
 "http://www.w3.org/TR/2001/REC-SVG-20010904/DTD/svg10.dtd">
<svg version="1.0" xmlns="http://www.w3.org/2000/svg"
 width="512.000000pt" height="512.000000pt" viewBox="0 0 512.000000 512.000000"
 preserveAspectRatio="xMidYMid meet">
<metadata>
Created by potrace 1.14, written by Peter Selinger 2001-2017
</metadata>
<g transform="translate(0.000000,512.000000) scale(0.100000,-0.100000)"
fill="#000000" stroke="none">
<path d="M2533 5098 c-11 -13 -47 -61 -79 -108 -90 -131 -185 -214 -402 -350
-338 -213 -374 -240 -403 -303 -32 -71 -24 -144 27 -255 17 -35 108 -185 127
-207 48 -57 194 -276 223 -334 49 -100 52 -157 12 -231 -39 -74 -69 -95 -138
-95 -42 0 -71 8 -120 33 -80 39 -106 63 -182 166 -32 45 -65 88 -72 97 -8 9
-15 20 -17 25 -16 40 -228 345 -242 350 -11 3 -30 -4 -50 -21 -18 -14 -88 -72
-157 -128 -73 -59 -139 -123 -157 -151 -49 -72 -74 -164 -74 -271 0 -133 18
-217 73 -335 74 -158 176 -259 539 -532 154 -116 240 -197 269 -252 23 -43 24
-46 8 -79 -23 -48 -74 -70 -163 -69 -154 1 -413 117 -585 261 -14 11 -29 24
-35 28 -66 51 -200 170 -293 261 -41 39 -83 72 -92 72 -19 0 -52 -32 -48 -46
1 -5 -1 -31 -5 -59 -28 -205 -29 -645 -1 -835 83 -558 207 -924 424 -1248 181
-272 359 -403 625 -462 61 -14 113 -17 220 -15 77 2 151 6 165 9 14 3 41 9 60
12 66 12 219 54 264 74 54 23 53 21 60 195 3 72 8 182 12 245 5 104 4 117 -13
131 -10 9 -139 94 -288 189 -148 95 -301 193 -340 218 -595 382 -555 353 -555
408 0 56 55 100 107 88 16 -4 119 -54 231 -111 214 -109 232 -118 260 -132 9
-4 141 -72 293 -150 152 -77 283 -141 292 -141 25 0 40 28 42 83 2 28 6 111 9
182 3 72 8 164 11 205 2 41 7 131 10 200 3 69 8 159 10 200 3 41 7 132 10 202
l6 127 -42 31 c-35 25 -317 207 -404 260 -106 65 -346 225 -356 237 -7 8 -13
32 -13 54 0 48 26 77 75 85 31 5 76 -15 373 -166 300 -153 341 -171 362 -161
18 8 24 19 25 43 1 18 2 56 4 83 1 28 6 113 9 190 4 77 9 159 11 182 2 22 7
110 10 195 11 275 13 285 62 307 41 19 77 13 106 -17 29 -30 31 -43 42 -292 3
-74 8 -162 10 -195 2 -33 7 -123 10 -200 12 -281 16 -305 52 -305 8 0 165 77
348 170 201 103 344 170 362 170 63 0 106 -73 77 -131 -9 -18 -138 -106 -401
-275 -213 -136 -392 -253 -396 -258 -7 -10 -3 -199 8 -371 2 -33 6 -118 10
-190 3 -71 8 -157 10 -190 1 -33 6 -125 10 -205 9 -197 12 -219 26 -236 6 -8
18 -14 26 -14 14 0 253 120 850 426 111 57 212 106 225 108 82 12 141 -93 84
-150 -8 -8 -93 -64 -188 -125 -95 -62 -195 -126 -223 -144 -27 -18 -203 -130
-390 -250 -187 -120 -348 -225 -359 -234 -20 -17 -20 11 0 -406 4 -66 10 -127
15 -136 10 -20 123 -62 239 -89 260 -60 502 -47 693 37 255 111 464 363 645
773 45 101 126 362 158 505 8 36 34 168 39 199 3 17 7 42 10 56 48 264 52 743
10 1008 -5 31 -23 52 -45 52 -10 0 -49 -30 -88 -67 -236 -229 -438 -387 -582
-455 -97 -46 -124 -56 -201 -78 -188 -51 -324 -7 -304 98 10 52 122 159 340
324 202 153 254 197 338 283 53 55 145 186 151 217 2 7 9 27 16 43 48 114 64
305 35 414 -33 126 -73 178 -236 304 -41 31 -94 75 -119 97 -45 41 -56 45 -76
32 -7 -4 -84 -115 -172 -247 -177 -266 -219 -318 -292 -365 -148 -95 -269 -67
-316 72 -33 101 -4 171 192 449 174 247 210 312 227 415 20 119 -24 186 -188
288 -130 81 -417 272 -455 302 -60 49 -127 125 -198 224 -40 56 -76 96 -88 98
-11 2 -29 -7 -41 -20z m-136 -863 c71 -42 102 -145 67 -220 -46 -95 -159 -133
-247 -81 -56 32 -87 83 -88 145 -4 144 144 230 268 156z m-1108 -876 c42 -27
48 -90 11 -129 -37 -40 -86 -41 -124 -4 -75 76 22 189 113 133z m2640 11 c5 0
20 -11 35 -25 75 -70 -27 -188 -112 -129 -54 38 -48 119 11 148 18 8 38 13 45
11 8 -3 17 -5 21 -5z m-2974 -1457 c22 -34 14 -91 -17 -115 -48 -37 -128 -10
-142 47 -4 15 0 39 9 59 29 60 114 65 150 9z m3458 9 c26 -23 23 -87 -8 -117
-52 -53 -145 -16 -145 57 0 85 86 118 153 60z m-1180 -67 c19 -8 47 -55 47
-79 0 -47 -43 -86 -95 -86 -34 0 -75 39 -79 75 -8 75 55 120 127 90z m-1748
-984 c95 -44 133 -148 86 -239 -23 -45 -45 -66 -91 -84 -98 -40 -209 17 -238
122 -12 46 7 122 39 157 30 32 95 63 134 63 17 0 48 -9 70 -19z m2142 -182
c110 -53 127 -219 31 -292 -127 -96 -298 -5 -285 151 9 125 138 197 254 141z"/>
</g>
</svg>
